<svg width="40" height="40" viewBox="0 0 40 40" fill="none" xmlns="http://www.w3.org/2000/svg">
<path fill-rule="evenodd" clip-rule="evenodd" d="M36.4302 9.87202C36.4302 8.13453 35.4062 6.55892 33.8182 5.85248C30.5482 4.40003 24.3074 1.6262 21.5019 0.378729C20.3644 -0.126243 19.0658 -0.126243 17.9283 0.378729C15.1228 1.6262 8.88195 4.40003 5.61195 5.85248C4.02401 6.55892 3 8.13453 3 9.87202V23.4209C3 28.8525 6.0052 32.7163 9.4925 35.3476C12.8821 37.9041 16.7143 39.2809 18.4887 39.8246C18.4931 39.8264 18.4984 39.8272 18.5028 39.829C19.2946 40.0569 20.1347 40.0569 20.9265 39.8299C20.9318 39.8281 20.937 39.8272 20.9423 39.8255C22.7168 39.2809 26.548 37.905 29.9377 35.3476C33.425 32.7163 36.4302 28.8525 36.4302 23.4209V9.87202ZM34.6707 9.87202V23.4209C34.6707 28.2252 31.9629 31.6148 28.8776 33.9426C25.7 36.3408 22.1054 37.6279 20.4347 38.1408C19.9658 38.2736 19.4688 38.2736 18.9999 38.1408C17.3257 37.627 13.7311 36.3408 10.5526 33.9426C7.46732 31.6148 4.75948 28.2252 4.75948 23.4209V9.87202C4.75948 8.82953 5.37356 7.88469 6.3272 7.46065C9.59632 6.00732 15.8372 3.23349 18.6436 1.9869C19.3254 1.68339 20.1048 1.68339 20.7866 1.9869C23.593 3.23349 29.8339 6.00732 33.103 7.46065C34.0566 7.88469 34.6707 8.82953 34.6707 9.87202V9.87202Z" fill="#16182D"/>
<path fill-rule="evenodd" clip-rule="evenodd" d="M19.715 10.4209C14.4278 10.4209 10.1355 14.7132 10.1355 19.9995C10.1355 25.2868 14.4278 29.579 19.715 29.579C25.0023 29.579 29.2945 25.2868 29.2945 19.9995C29.2945 14.7132 25.0023 10.4209 19.715 10.4209V10.4209ZM19.715 12.1804C24.031 12.1804 27.535 15.6835 27.535 19.9995C27.535 24.3155 24.031 27.8196 19.715 27.8196C15.399 27.8196 11.895 24.3155 11.895 19.9995C11.895 15.6835 15.399 12.1804 19.715 12.1804V12.1804Z" fill="#16182D"/>
<path fill-rule="evenodd" clip-rule="evenodd" d="M15.3207 20.6488L17.8086 23.1367C18.1519 23.4801 18.7092 23.4801 19.0526 23.1367L24.0284 18.1609C24.3717 17.8176 24.3717 17.2603 24.0284 16.917C23.6851 16.5736 23.1278 16.5736 22.7844 16.917L18.4306 21.2708L16.5647 19.4049C16.2213 19.0615 15.664 19.0615 15.3207 19.4049C14.9774 19.7482 14.9774 20.3055 15.3207 20.6488Z" fill="#16182D"/>
</svg>
